<svg width="46" height="46" viewBox="0 0 46 46" fill="none" xmlns="http://www.w3.org/2000/svg">
<g filter="url(#filter0_d_896_9)">
<rect x="10" y="6" width="26" height="26" rx="3" fill="white"/>
<path d="M21.1484 24L18.4756 19.8643C18.2067 19.8597 17.8307 19.8438 17.3477 19.8164V24H15.502V13.9854C15.6022 13.9854 15.9873 13.9694 16.6572 13.9375C17.3271 13.901 17.8672 13.8828 18.2773 13.8828C20.8203 13.8828 22.0918 14.8672 22.0918 16.8359C22.0918 17.4284 21.9163 17.9684 21.5654 18.4561C21.2145 18.9437 20.7725 19.2878 20.2393 19.4883L23.1992 24H21.1484ZM17.3477 15.5303V18.3125C17.6758 18.3398 17.9264 18.3535 18.0996 18.3535C18.8424 18.3535 19.3848 18.2487 19.7266 18.0391C20.0729 17.8294 20.2461 17.4215 20.2461 16.8154C20.2461 16.3232 20.0615 15.9792 19.6924 15.7832C19.3232 15.5872 18.7422 15.4893 17.9492 15.4893C17.7578 15.4893 17.5573 15.5029 17.3477 15.5303ZM24.0605 13.9854H25.8379V20.7734C25.8379 21.3112 26.002 21.7487 26.3301 22.0859C26.6582 22.4232 27.1094 22.5918 27.6836 22.5918C28.3262 22.5918 28.8252 22.4277 29.1807 22.0996C29.5407 21.7669 29.7207 21.3135 29.7207 20.7393V13.9854H31.498V20.876C31.498 21.9059 31.1517 22.7126 30.459 23.2959C29.7708 23.8792 28.8503 24.1709 27.6973 24.1709C26.5352 24.1709 25.6374 23.8861 25.0039 23.3164C24.375 22.7467 24.0605 21.931 24.0605 20.8691V13.9854Z" fill="#00979C"/>
</g>
<defs>
<filter id="filter0_d_896_9" x="0" y="0" width="46" height="46" filterUnits="userSpaceOnUse" color-interpolation-filters="sRGB">
<feFlood flood-opacity="0" result="BackgroundImageFix"/>
<feColorMatrix in="SourceAlpha" type="matrix" values="0 0 0 0 0 0 0 0 0 0 0 0 0 0 0 0 0 0 127 0" result="hardAlpha"/>
<feOffset dy="4"/>
<feGaussianBlur stdDeviation="5"/>
<feComposite in2="hardAlpha" operator="out"/>
<feColorMatrix type="matrix" values="0 0 0 0 0 0 0 0 0 0 0 0 0 0 0 0 0 0 0.25 0"/>
<feBlend mode="normal" in2="BackgroundImageFix" result="effect1_dropShadow_896_9"/>
<feBlend mode="normal" in="SourceGraphic" in2="effect1_dropShadow_896_9" result="shape"/>
</filter>
</defs>
</svg>
